<svg width="40" height="40" viewBox="0 0 40 40" fill="none" xmlns="http://www.w3.org/2000/svg">
<path d="M30.5733 14.5166C29.395 14.5166 28.4417 15.47 28.4417 16.6466V24.1966C28.4417 25.3783 29.395 26.33 30.5733 26.33C31.7517 26.33 32.705 25.3783 32.705 24.1966V16.6466C32.705 15.47 31.7517 14.5166 30.5733 14.5166ZM9.42665 14.5166C8.24832 14.5166 7.29498 15.47 7.29498 16.6466V24.1966C7.29498 25.3783 8.24832 26.33 9.42665 26.33C10.605 26.33 11.5583 25.3783 11.5583 24.1966V16.6466C11.56 15.47 10.605 14.5166 9.42665 14.5166ZM24.2417 8.16831L25.5217 5.85498C25.6817 5.57665 25.5767 5.22665 25.3 5.07165C25.02 4.91498 24.6683 5.01665 24.515 5.29665L23.2 7.66331C22.22 7.27165 21.14 7.04998 20 7.04998C18.86 7.04998 17.78 7.26998 16.8 7.66165L15.485 5.29831C15.335 5.01831 14.9833 4.91665 14.7 5.07331C14.4233 5.22831 14.3217 5.57831 14.4783 5.85665L15.7583 8.16998C13.4533 9.48331 11.9133 11.8316 11.9133 14.5166C11.9133 14.535 11.9133 14.5516 11.9167 14.5733C11.9133 14.5833 11.9133 14.595 11.9133 14.605V14.6066H28.085V14.605C28.085 14.595 28.085 14.5833 28.085 14.5733C28.085 14.5516 28.085 14.535 28.085 14.5166C28.0867 11.8316 26.5467 9.48498 24.2417 8.16831ZM16.2667 11.4483C15.9517 11.4483 15.6933 11.1883 15.6933 10.8716C15.6933 10.555 15.95 10.295 16.2667 10.295C16.585 10.295 16.8467 10.5533 16.8467 10.8716C16.845 11.1883 16.585 11.4483 16.2667 11.4483ZM23.7333 11.4483C23.415 11.4483 23.1567 11.1883 23.1567 10.8716C23.1567 10.555 23.4133 10.295 23.7333 10.295C24.0483 10.295 24.3067 10.5533 24.3067 10.8716C24.3067 11.1883 24.05 11.4483 23.7333 11.4483ZM11.9133 26.8666C11.9133 27.9433 12.7883 28.8183 13.87 28.8183H14.8467V32.82C14.8467 33.9983 15.8033 34.95 16.9783 34.95C18.1533 34.95 19.11 33.9983 19.11 32.82V28.8183H20.8867V32.82C20.8867 33.9983 21.84 34.95 23.015 34.95C24.1967 34.95 25.15 33.9983 25.15 32.82V28.8183H26.1267C27.2067 28.8183 28.0833 27.945 28.0833 26.8666V15.0466H11.9133V26.8666Z" fill="white"/>
</svg>
