<svg width="40" height="40" viewBox="0 0 40 40" fill="none" xmlns="http://www.w3.org/2000/svg">
<path d="M21.59 19.36L26.5183 14.4317L10.6 5.48501C9.54499 4.91501 8.55666 4.83501 7.68999 5.45834L21.59 19.36ZM27.3583 25.13L32.4817 22.2483C33.4817 21.6883 34.03 20.895 34.03 20.015C34.03 19.1367 33.4817 18.3417 32.4833 17.7817L27.845 15.1767L22.6233 20.3967L27.3583 25.13ZM6.83332 6.67001C6.72666 6.99834 6.66666 7.36501 6.66666 7.76668V32.275C6.66666 32.91 6.80666 33.4567 7.05999 33.8917L20.555 20.395L6.83332 6.67001ZM21.59 21.4283L8.16999 34.85C8.42666 34.9483 8.70332 35 8.99499 35C9.51499 35 10.0567 34.8467 10.6083 34.54L26.0333 25.8783L21.59 21.4283Z" fill="white"/>
</svg>
