<svg width="40" height="40" viewBox="0 0 40 40" fill="none" xmlns="http://www.w3.org/2000/svg">
<path d="M21.07 13.4733C20.4633 13.7883 19.7533 14.1733 19 14.1733C18.2467 14.1733 17.65 13.825 17.2233 13.485C17.0067 13.3167 16.8333 13.1483 16.7017 13.025C16.4733 12.845 16.5017 12.5933 16.595 12.6017C16.7517 12.6217 16.775 12.8283 16.875 12.92C17.0083 13.045 17.175 13.2067 17.3783 13.3683C17.7833 13.6883 18.3233 14.0017 19 14.0017C19.6767 14.0017 20.4633 13.605 20.945 13.335C21.2167 13.1817 21.5633 12.9083 21.8467 12.7C22.0633 12.5417 22.055 12.35 22.2333 12.37C22.4117 12.3917 22.28 12.5817 22.03 12.8C21.7783 13.0183 21.3867 13.3083 21.07 13.4733Z" fill="white"/>
<path d="M32.7483 29.6167C32.5117 29.35 32.4 28.8567 32.28 28.3317C32.16 27.8067 32.025 27.2417 31.595 26.875C31.5933 26.875 31.5917 26.8733 31.5917 26.8733C31.505 26.7983 31.4183 26.735 31.33 26.6833C31.2417 26.63 31.1533 26.5883 31.0633 26.5533C31.6617 24.7783 31.4283 23.01 30.8217 21.4133C30.0817 19.4517 28.785 17.7433 27.7967 16.575C26.69 15.1783 25.6083 13.8533 25.6283 11.895C25.6633 8.90667 25.9567 3.365 20.6983 3.35834C20.485 3.35834 20.2617 3.36667 20.03 3.38667C14.1533 3.85834 15.7133 10.0667 15.625 12.145C15.5183 13.665 15.21 14.8633 14.1633 16.35C12.9367 17.81 11.2067 20.175 10.3867 22.635C10 23.7967 9.81666 24.98 9.985 26.1017C9.93333 26.1483 9.88333 26.1983 9.83333 26.25C9.47333 26.635 9.20666 27.1017 8.90833 27.415C8.63166 27.6933 8.23666 27.7967 7.80166 27.9533C7.36666 28.11 6.89 28.3383 6.6 28.895C6.6 28.895 6.6 28.8967 6.59833 28.8983C6.46166 29.1517 6.41833 29.4267 6.41833 29.705C6.41833 29.9617 6.45666 30.2233 6.495 30.4733C6.575 30.995 6.65666 31.4883 6.54833 31.8233C6.205 32.7633 6.16166 33.4133 6.40333 33.885C6.64666 34.3583 7.14333 34.5667 7.70833 34.6833C8.835 34.9183 10.3617 34.86 11.565 35.4983L11.6683 35.3033L11.5667 35.5C12.855 36.1733 14.1617 36.4117 15.2033 36.175C15.96 36.0017 16.5717 35.5517 16.8883 34.86C17.7033 34.8567 18.5967 34.5117 20.03 34.4333C21.0017 34.355 22.2167 34.7783 23.6117 34.7C23.6483 34.8517 23.7017 34.9983 23.775 35.1367C23.775 35.1367 23.775 35.1383 23.7767 35.14C24.3167 36.2217 25.3233 36.7167 26.395 36.6333C27.4667 36.55 28.61 35.9167 29.5333 34.8183L29.3633 34.6767L29.5333 34.8167C30.4117 33.75 31.8717 33.3083 32.84 32.725C33.3233 32.4333 33.715 32.0667 33.7467 31.5367C33.7767 31.0067 33.465 30.4117 32.7483 29.6167ZM19.765 10.1033C19.76 9.71334 19.825 9.37834 19.975 9.03834C20.125 8.69834 20.31 8.45334 20.5717 8.255C20.8333 8.05667 21.0917 7.965 21.395 7.96167H21.41C21.7083 7.96167 21.9633 8.05 22.225 8.24C22.49 8.43334 22.6817 8.675 22.835 9.01167C22.9867 9.34 23.06 9.66167 23.0683 10.0433C23.0683 10.0533 23.0683 10.0617 23.07 10.0717C23.0733 10.4633 23.0067 10.7967 22.8583 11.1367C22.7733 11.33 22.6767 11.4933 22.5583 11.635C22.52 11.6167 22.4767 11.5983 22.435 11.58C22.2867 11.5167 22.1567 11.465 22.04 11.42C21.9233 11.375 21.8333 11.3467 21.7383 11.3133C21.8067 11.2317 21.9417 11.1333 21.99 11.0117C22.0667 10.8283 22.1033 10.6467 22.11 10.4333C22.11 10.425 22.1133 10.4167 22.1133 10.4067C22.1183 10.2 22.09 10.025 22.03 9.845C21.9667 9.65667 21.8867 9.52 21.7717 9.40667C21.6567 9.29334 21.54 9.24167 21.4 9.23834C21.3933 9.23834 21.3883 9.23834 21.3817 9.23834C21.25 9.23834 21.1383 9.28334 21.02 9.38167C20.8967 9.485 20.805 9.61667 20.73 9.79834C20.6533 9.98167 20.6167 10.1633 20.61 10.3783C20.6083 10.3867 20.6083 10.395 20.6083 10.4033C20.605 10.5217 20.6133 10.6317 20.6317 10.7367C20.365 10.6033 20.0233 10.5067 19.7867 10.4517C19.7733 10.3483 19.765 10.2433 19.7633 10.135V10.1033H19.765ZM16.1917 10.19C16.1717 9.85334 16.2067 9.56334 16.2983 9.26334C16.39 8.96334 16.515 8.745 16.695 8.56667C16.875 8.38834 17.0567 8.29834 17.2767 8.28667C17.2933 8.28667 17.31 8.28667 17.3267 8.28667C17.5233 8.28667 17.7017 8.35334 17.885 8.49834C18.0833 8.65667 18.2333 8.86 18.3583 9.14667C18.485 9.43167 18.5517 9.71834 18.57 10.055V10.0583C18.58 10.2 18.5783 10.3333 18.5667 10.4633C18.5283 10.4733 18.49 10.4867 18.4533 10.4983C18.24 10.5717 18.07 10.6533 17.9067 10.7617C17.9233 10.6483 17.925 10.5333 17.9117 10.405C17.9117 10.3983 17.9117 10.3917 17.9117 10.385C17.8933 10.215 17.8583 10.0717 17.7983 9.92834C17.735 9.77834 17.6633 9.67167 17.5683 9.59C17.4817 9.51667 17.4017 9.48167 17.3133 9.48334C17.3033 9.48334 17.295 9.48334 17.285 9.485C17.1833 9.49334 17.1017 9.54167 17.0233 9.63834C16.945 9.73334 16.8933 9.85167 16.855 10.01C16.8183 10.1667 16.8083 10.3217 16.8233 10.4983C16.8233 10.505 16.825 10.51 16.825 10.5183C16.8417 10.69 16.8767 10.8333 16.9367 10.9767C17 11.125 17.0733 11.2317 17.1683 11.3133C17.1833 11.3267 17.2 11.34 17.2133 11.35C17.115 11.425 17.05 11.48 16.97 11.5383C16.92 11.575 16.8583 11.62 16.7867 11.6733C16.6317 11.5283 16.51 11.345 16.405 11.1033C16.2783 10.8167 16.2117 10.53 16.1917 10.1933V10.19ZM16.45 12.2367C16.7617 12.0033 16.975 11.8467 17.12 11.74C17.2633 11.635 17.3217 11.5967 17.3667 11.5533H17.3683C17.6017 11.3333 17.9717 10.93 18.5333 10.7367C18.725 10.67 18.9417 10.6283 19.1833 10.6267C19.6417 10.625 20.1967 10.775 20.8667 11.2067C21.2783 11.4733 21.5983 11.4967 22.3367 11.8117H22.3383C22.6933 11.9567 22.9017 12.1483 23.0033 12.3467C23.105 12.5467 23.1083 12.7633 23.0233 12.9917C22.8517 13.4467 22.3083 13.9283 21.545 14.1667H21.5433C21.17 14.2867 20.8467 14.555 20.465 14.7733C20.0833 14.9917 19.65 15.1683 19.0617 15.135C18.8117 15.12 18.61 15.07 18.4383 14.9967C18.2667 14.9233 18.125 14.825 17.9883 14.7183C17.72 14.5 17.4833 14.2267 17.1383 14.025H17.1367H17.135C16.58 13.7083 16.2767 13.345 16.18 13.0283C16.085 12.7133 16.175 12.4433 16.45 12.2367ZM16.6683 33.9333V33.935C16.59 34.9733 16.005 35.5367 15.105 35.7433C14.2067 35.9483 12.9883 35.7433 11.7733 35.1083H11.7717C10.425 34.3967 8.825 34.4667 7.79833 34.2517C7.285 34.145 6.95 33.9833 6.795 33.6833C6.64166 33.3833 6.63833 32.86 6.965 31.97L6.96666 31.9667L6.96833 31.9633C7.13 31.465 7.01 30.92 6.93333 30.4067C6.855 29.895 6.81666 29.43 6.99 29.105L6.99166 29.1017C7.21666 28.67 7.545 28.515 7.95166 28.37C8.36 28.2233 8.84166 28.1083 9.225 27.7267L9.22666 27.725L9.22833 27.7233C9.58166 27.3517 9.84666 26.885 10.1567 26.5533C10.4183 26.275 10.68 26.0883 11.075 26.0867C11.08 26.0867 11.085 26.0867 11.09 26.0867C11.1583 26.0867 11.2317 26.0917 11.31 26.105C11.8333 26.1833 12.29 26.5517 12.7317 27.1467L14.0017 29.4617H14.0033C14.34 30.1667 15.055 30.945 15.66 31.7367C16.2633 32.5283 16.7333 33.3233 16.6717 33.9317L16.6683 33.9333ZM16.5633 32.25C16.3967 31.9867 16.205 31.7267 16.0083 31.4683C15.8833 31.3033 15.755 31.14 15.6267 30.98C15.8783 30.98 16.0933 30.94 16.2667 30.86C16.4833 30.7617 16.635 30.605 16.71 30.4033C16.86 30 16.71 29.4317 16.23 28.7817C15.7467 28.1317 14.9333 27.3983 13.74 26.6667C12.8617 26.12 12.3717 25.4517 12.1417 24.725C11.9117 23.9983 11.9433 23.2133 12.12 22.4367C12.46 20.9467 13.335 19.5 13.8917 18.59C14.0417 18.48 13.945 18.795 13.3267 19.9417C12.7733 20.99 11.7383 23.41 13.155 25.2983C13.1917 23.9533 13.5133 22.5833 14.0517 21.3017C14.8383 19.5233 16.4783 16.4367 16.6083 13.9767C16.6767 14.025 16.9083 14.1817 17.01 14.24C17.3133 14.4167 17.5367 14.6767 17.83 14.9117C18.125 15.1483 18.49 15.3517 19.045 15.3833C19.0967 15.3867 19.15 15.3883 19.2 15.3883C19.7717 15.3883 20.2167 15.2017 20.5883 14.99C20.9917 14.76 21.315 14.5033 21.6183 14.405H21.62C22.265 14.2017 22.7767 13.8467 23.0683 13.43C23.5717 15.4067 24.7367 18.2583 25.485 19.6517C25.8833 20.39 26.6767 21.96 27.0183 23.8517C27.235 23.845 27.4733 23.8767 27.73 23.9417C28.625 21.62 26.9717 19.1217 26.215 18.425C25.9083 18.1283 25.895 17.995 26.045 18.0017C26.865 18.7283 27.9433 20.1867 28.335 21.835C28.5133 22.5867 28.5517 23.3767 28.3617 24.1567C28.455 24.195 28.55 24.2367 28.6467 24.2833C30.0833 24.9833 30.615 25.5917 30.3583 26.4217C30.275 26.4183 30.1917 26.42 30.1117 26.4217C30.105 26.4217 30.0967 26.4217 30.0883 26.4217C30.2967 25.7633 29.8367 25.2767 28.6067 24.7217C27.3333 24.1617 26.3183 24.2167 26.1467 25.3533C26.135 25.4133 26.125 25.4733 26.1183 25.535C26.0233 25.5683 25.9283 25.61 25.8317 25.6617C25.235 25.99 24.9067 26.5833 24.725 27.3117C24.545 28.04 24.4917 28.9183 24.4417 29.9083C24.41 30.405 24.2067 31.0783 23.9983 31.79C21.9167 33.285 19.0217 33.9283 16.5633 32.25ZM32.61 32.345C31.7367 32.8733 30.1833 33.3333 29.1933 34.5333C28.3317 35.5583 27.2833 36.12 26.36 36.1933C25.435 36.2667 24.6383 35.8833 24.1683 34.94V34.9383L24.1667 34.9333C23.875 34.3783 23.9967 33.5033 24.2417 32.58C24.4867 31.6567 24.84 30.7083 24.8883 29.9383V29.9367C24.9383 28.95 24.9933 28.0867 25.16 27.4217C25.3267 26.7567 25.5867 26.3067 26.0483 26.0533C26.0717 26.0417 26.0917 26.03 26.1133 26.02C26.165 26.875 26.5883 27.7467 27.3367 27.935C28.155 28.15 29.335 27.4483 29.8333 26.875C29.9333 26.8717 30.03 26.865 30.125 26.8633C30.5617 26.8533 30.9267 26.8783 31.3033 27.205V27.2067H31.305C31.5933 27.45 31.73 27.9117 31.8483 28.4283C31.9667 28.945 32.0617 29.5067 32.4183 29.9083H32.42C33.1033 30.6683 33.3233 31.1817 33.305 31.5083C33.2867 31.8383 33.05 32.0817 32.61 32.345Z" fill="white"/>
<path d="M19.5633 11.27C19.5883 11.35 19.7183 11.3367 19.7933 11.375C19.86 11.4083 19.9117 11.4833 19.9867 11.485C20.0567 11.4867 20.165 11.46 20.175 11.39C20.1883 11.2967 20.0533 11.2383 19.965 11.205C19.8533 11.1617 19.71 11.14 19.605 11.1983C19.5817 11.2117 19.555 11.2433 19.5633 11.27ZM18.7967 11.27C18.77 11.35 18.64 11.3367 18.565 11.375C18.5 11.4083 18.4467 11.4833 18.3733 11.485C18.3033 11.4867 18.1933 11.46 18.1833 11.39C18.1717 11.2967 18.3067 11.2383 18.3933 11.205C18.505 11.1617 18.6483 11.14 18.755 11.1983C18.78 11.2117 18.805 11.2433 18.7967 11.27Z" fill="white"/>
</svg>
